<svg xmlns="http://www.w3.org/2000/svg" viewBox="0 0 334.7 11.84"><g data-name="Layer 2"><g data-name="Layer 1"><path fill="#585858" d="M1.41 11.67H0V.48h1.41zM10.7 7v4.71H9.39V7.38A2 2 0 007.3 5.16a2.15 2.15 0 00-2.24 2.25v4.26H3.75V4.08h1.3v1a3 3 0 012.48-1.16A3 3 0 0110.7 7zM17.81 5.27h-3.2V9c0 1.14.61 1.64 1.44 1.64a2.87 2.87 0 001.55-.51l.61 1a3.77 3.77 0 01-2.28.75c-1.64 0-2.63-.9-2.63-2.84V5.27h-1.62V4.08h1.62V1.69h1.31v2.39h3.2zM26 7.85v.49h-6a2.48 2.48 0 002.59 2.35 3.58 3.58 0 002.41-.9l.69.89a4.29 4.29 0 01-3.11 1.15 3.73 3.73 0 01-3.86-3.95 3.72 3.72 0 013.78-4c2.02.04 3.5 1.64 3.5 3.97zm-6-.57h4.65a2.28 2.28 0 00-2.27-2.2A2.36 2.36 0 0020 7.28zM32.48 4.17l-.32 1.28a3 3 0 00-1.31-.29 2 2 0 00-2 2.28v4.23h-1.3V4.08h1.28v1a2.66 2.66 0 012.23-1.16 3.35 3.35 0 011.42.25zM40.59 7v4.71h-1.31V7.38a2 2 0 00-2.09-2.22 2.16 2.16 0 00-2.25 2.25v4.26h-1.3V4.08h1.3v1A3.2 3.2 0 0140.59 7zM49.85 11.67h-1.31v-1a3.37 3.37 0 01-2.68 1.17 3.79 3.79 0 01-3.8-3.95 3.79 3.79 0 013.8-4 3.34 3.34 0 012.68 1.21v-1h1.31zM43.4 7.88a2.61 2.61 0 105.22 0 2.61 2.61 0 10-5.22 0zM57.14 5.27H54V9c0 1.14.61 1.64 1.43 1.64a2.87 2.87 0 001.55-.51l.62 1a3.79 3.79 0 01-2.28.75c-1.65 0-2.63-.9-2.63-2.84V5.27H51V4.08h1.62V1.69H54v2.39h3.19zM60.17 1.41a.93.93 0 01-1.85 0 .93.93 0 111.85 0zm-.27 10.26h-1.3V4.08h1.3zM69.49 7.88a4 4 0 01-8 0 4 4 0 018 0zm-6.7 0a2.68 2.68 0 105.36 0 2.68 2.68 0 10-5.36 0zM78 7v4.71h-1.32V7.38a2 2 0 00-2.08-2.22 2.16 2.16 0 00-2.25 2.25v4.26h-1.3V4.08h1.29v1a3 3 0 012.49-1.15A3 3 0 0178 7zM87.26 11.67H86v-1a3.37 3.37 0 01-2.68 1.17 3.79 3.79 0 01-3.8-3.95 3.79 3.79 0 013.8-4A3.34 3.34 0 0186 5.1v-1h1.31zm-6.45-3.79a2.61 2.61 0 105.22 0 2.61 2.61 0 10-5.22 0zM90.69 11.67h-1.3V.16h1.3zM105.8 7.28c0 3.06-2.06 4.55-4.64 4.55s-4.65-1.49-4.65-4.55V.48h1.41v6.7a3.24 3.24 0 106.47 0V.48h1.41zM114.94 7v4.71h-1.31V7.38a2 2 0 00-2.09-2.22 2.16 2.16 0 00-2.25 2.25v4.26H108V4.08h1.3v1A3.2 3.2 0 01114.94 7zM118.56 1.41a.93.93 0 01-1.85 0 .93.93 0 111.85 0zm-.27 10.26H117V4.08h1.3zM127.88 7.88a4 4 0 01-8 0 4 4 0 018 0zm-6.7 0a2.68 2.68 0 105.36 0 2.68 2.68 0 10-5.36 0zM136.39 7v4.71h-1.32V7.38A2 2 0 00133 5.16a2.16 2.16 0 00-2.25 2.25v4.26h-1.3V4.08h1.29v1a3 3 0 012.49-1.15A3 3 0 01136.39 7zM146.91 5.27H144v6.4h-1.31v-6.4H141V4.08h1.69v-1.3c0-1.59.73-2.78 2.52-2.78a3.91 3.91 0 012.09.57l-.47 1.09a3.12 3.12 0 00-1.53-.44c-.9 0-1.3.58-1.3 1.56v1.3h2.92zM155.35 7.88a4 4 0 01-8 0 4 4 0 018 0zm-6.7 0a2.68 2.68 0 105.35 0 2.68 2.68 0 10-5.35 0zM161.8 4.17l-.32 1.28a3 3 0 00-1.3-.29 2 2 0 00-2 2.28v4.23h-1.3V4.08h1.29v1a2.66 2.66 0 012.22-1.16 3.35 3.35 0 011.41.25zM176.38 2.63l-1.17.79a4 4 0 00-3.41-1.76 4.21 4.21 0 00-4.32 4.42 4.2 4.2 0 004.32 4.41 4 4 0 003.4-1.75l1.15.84a5.38 5.38 0 01-4.55 2.26 5.58 5.58 0 01-5.8-5.76 5.59 5.59 0 015.8-5.77 5.28 5.28 0 014.58 2.32zM185.35 7.88a4 4 0 01-8 0 4 4 0 018 0zm-6.7 0a2.68 2.68 0 105.36 0 2.68 2.68 0 10-5.36 0zM193.86 7v4.71h-1.31V7.38a2 2 0 00-2.09-2.22 2.16 2.16 0 00-2.25 2.25v4.26h-1.3V4.08h1.29v1a3 3 0 012.49-1.15A3 3 0 01193.86 7zM201 5.76a4.82 4.82 0 00-2.45-.7c-1 0-1.71.44-1.71 1.13s.55.89 1.47 1l.88.11c1.61.22 2.57.9 2.57 2.15 0 1.45-1.3 2.38-3.37 2.38a5.43 5.43 0 01-3.2-1l.61-1a4 4 0 002.6.81c1.24 0 2-.41 2-1.16 0-.56-.49-.91-1.52-1l-.88-.1c-1.71-.21-2.53-1-2.53-2.13 0-1.45 1.21-2.33 3.05-2.33a5.51 5.51 0 013 .82zM210 7.85v.49h-6a2.47 2.47 0 002.58 2.35 3.56 3.56 0 002.34-.9l.7.89a4.33 4.33 0 01-3.12 1.15 3.73 3.73 0 01-3.86-3.95 3.73 3.73 0 013.78-4c2.07.04 3.58 1.64 3.58 3.97zm-6-.57h4.65a2.26 2.26 0 00-2.27-2.2 2.36 2.36 0 00-2.38 2.2zM216.45 4.17l-.32 1.28a3 3 0 00-1.3-.29 2 2 0 00-2 2.28v4.23h-1.3V4.08h1.29v1a2.63 2.63 0 012.22-1.16 3.35 3.35 0 011.41.25zM221.49 11.68H220l-3.19-7.6h1.42l2.55 6.27 2.56-6.27h1.38zM232.76 11.67h-1.31v-1a3.37 3.37 0 01-2.68 1.17A3.79 3.79 0 01225 7.88a3.79 3.79 0 013.8-4 3.34 3.34 0 012.68 1.18v-1h1.31zm-6.45-3.79a2.61 2.61 0 105.22 0 2.61 2.61 0 10-5.22 0zM240.05 5.27h-3.19V9c0 1.14.61 1.64 1.43 1.64a2.87 2.87 0 001.55-.51l.62 1a3.82 3.82 0 01-2.28.75c-1.65 0-2.63-.9-2.63-2.84V5.27h-1.63V4.08h1.63V1.69h1.31v2.39h3.19zM243.08 1.41a.93.93 0 01-1.85 0 .93.93 0 111.85 0zm-.27 10.26h-1.3V4.08h1.3zM252.4 7.88a4 4 0 01-8 0 4 4 0 018 0zm-6.7 0a2.68 2.68 0 105.36 0 2.68 2.68 0 10-5.36 0zM260.9 7v4.71h-1.31V7.38a2 2 0 00-2.08-2.22 2.16 2.16 0 00-2.25 2.25v4.26H254V4.08h1.29v1a3 3 0 012.49-1.15A2.94 2.94 0 01260.9 7zM274.06 7.88a4 4 0 01-8 0 4 4 0 018 0zm-6.71 0a2.68 2.68 0 105.36 0 2.68 2.68 0 10-5.36 0zM280.48 5.27h-2.92v6.4h-1.31v-6.4h-1.69V4.08h1.69v-1.3c0-1.59.74-2.78 2.53-2.78a3.9 3.9 0 012.08.57l-.47 1.09a3.08 3.08 0 00-1.52-.44c-.91 0-1.31.58-1.31 1.56v1.3h2.92zM295 11.68h-1.3l-6.76-8.79v8.78h-1.41V.47h1.27l6.78 8.8V.48H295zM304.53 11.67h-1.31v-1a3.35 3.35 0 01-2.68 1.17 3.78 3.78 0 01-3.79-3.95 3.79 3.79 0 013.79-4 3.33 3.33 0 012.68 1.18v-1h1.31zm-6.45-3.79a2.61 2.61 0 105.22 0 2.61 2.61 0 10-5.22 0zM311.82 5.27h-3.19V9c0 1.14.61 1.64 1.43 1.64a2.93 2.93 0 001.56-.51l.61 1a3.77 3.77 0 01-2.28.75c-1.64 0-2.63-.9-2.63-2.84V5.27h-1.62V4.08h1.62V1.69h1.31v2.39h3.19zM320.14 8.49a3.47 3.47 0 01-6.94 0V4.08h1.31v4.29a2.16 2.16 0 104.31 0V4.08h1.32zM327.09 4.17l-.32 1.28a3 3 0 00-1.3-.29 2 2 0 00-2 2.28v4.23h-1.3V4.08h1.28v1a2.66 2.66 0 012.23-1.16 3.35 3.35 0 011.41.25zM334.7 7.85v.49h-6a2.47 2.47 0 002.58 2.35 3.56 3.56 0 002.34-.9l.7.89a4.33 4.33 0 01-3.12 1.15 3.73 3.73 0 01-3.86-3.95 3.73 3.73 0 013.78-4c2.08.04 3.57 1.64 3.58 3.97zm-6-.57h4.65a2.26 2.26 0 00-2.27-2.2 2.36 2.36 0 00-2.36 2.2z"/></g></g></svg>